<?xml version="1.0" encoding="utf-8"?>
<!-- Generator: Adobe Illustrator 23.1.1, SVG Export Plug-In . SVG Version: 6.00 Build 0)  -->
<svg version="1.1" id="Layer_1" xmlns="http://www.w3.org/2000/svg" xmlns:xlink="http://www.w3.org/1999/xlink" x="0px" y="0px"
	 viewBox="0 0 419.5 130.3" style="enable-background:new 0 0 419.5 130.3;" xml:space="preserve">
<style type="text/css">
	.st0{fill-rule:evenodd;clip-rule:evenodd;fill:#FFFFFF;}
	.st1{fill:#FFFFFF;}
</style>
<g>
	<path class="st0" d="M37.1,51.5c3.7-8,8.9-13.5,14.3-18.8c5.4-5.3,12.5-11.1,20-15.4c11-6.3,20.2-3.1,27.8,1
		c7.6,4,14,8.9,19.5,14.2c5.4,5.3,11.3,13.3,13.4,19c3.9,10.5,4.9,17.5-0.4,27.3c-3.7,6.9-8,11.7-13.4,17.1
		c-5.4,5.3-11.3,11.8-18.4,16.1c-8.5,5.1-19.3,3.6-29.4-1.1c-7.6-3.6-11.5-7.1-16.9-12.5C48,93,41.1,85.4,37.8,78.8
		C33.1,69.2,32.4,61.5,37.1,51.5L37.1,51.5z M41.9,52.2c3.3-6.9,7.5-12.5,12.2-17.1s10.7-9.7,17.7-12.7c6.8-3,18.8-2,24.3,0.8
		c5.5,2.8,12.2,7.7,17,12.4c4.7,4.7,10.8,11.2,12.6,16.2c3.4,9.2,5.3,14.9,2.6,24c-1.9,6.3-7.6,13.1-12.1,17.8
		c-4.5,4.7-14,14.7-20.4,17.2c-9.2,3.7-18.2-0.4-26.1-5.1c-6.7-4-10.5-7.7-14.9-12.3c-4.4-4.7-9.3-11.7-12.1-17.5
		C38.5,67.6,37.8,60.9,41.9,52.2L41.9,52.2z"/>
	<path class="st0" d="M31.3,50.9c4.5-9.3,11.2-15.8,17.7-22.1c6.5-6.3,14.3-13,23.2-18c13.2-7.4,24.1-3.6,33.2,1.1
		c9.1,4.7,16.8,10.4,23.2,16.7c6.5,6.3,13.5,15.6,16,22.3c4.7,12.3,5.9,20.5-0.5,32.1c-4.4,8.1-9.6,13.8-16,20.1
		c-6.5,6.3-14.2,12.5-22.8,17.6c-12,7.2-22.6,6.1-34.4,0c-9.4-4.9-13.7-8.4-20.2-14.7c-6.5-6.3-14.7-15.3-18.6-23
		C26.6,71.7,25.6,62.7,31.3,50.9L31.3,50.9z M34.3,51c3.9-8.1,9.8-13.8,15.4-19.3c5.6-5.5,12.5-11.3,20.3-15.7
		c11.5-6.5,21.1-3.1,29,1c7.9,4.1,14.6,9.1,20.3,14.6c5.6,5.5,11.8,13.6,14,19.4c4.1,10.8,5.1,17.9-0.4,28c-3.9,7-8.3,12-14,17.5
		c-5.6,5.5-12.4,10.9-19.9,15.3c-10.5,6.3-19.7,5.3-30,0c-8.2-4.2-12-7.3-17.6-12.8C45.6,93.5,38.4,85.7,35.1,79
		C30.2,69.1,29.4,61.3,34.3,51L34.3,51z"/>
	<path class="st0" d="M125.9,76.5c-3.1,6.8-7.9,11.6-12.4,16.2c-4.5,4.6-10,9.5-16.3,13.2c-9.3,5.4-17,2.6-23.3-0.8
		c-6.4-3.5-11.8-7.6-16.3-12.2c-4.5-4.6-9.5-11.4-11.3-16.3c-3.3-9-4.1-15,0.3-23.4c3.1-5.9,6.7-10.1,11.3-14.7
		c4.5-4.6,10-9.1,16-12.9c8.4-5.2,15.7-4.1,24.2,0c6.4,3.1,9.7,6.1,14.2,10.7c4.5,4.6,10.4,11.2,13.1,16.8
		C129.2,61.3,129.9,68,125.9,76.5L125.9,76.5z M121.9,76c-2.7,6-6.7,10.5-10.6,14.5c-4,4-8.6,8.5-14.4,11.1
		c-5.7,2.5-15.8,1.7-20.4-0.7c-4.6-2.4-10.3-6.6-14.2-10.6c-4-4-8.3-9.9-9.8-14.2c-2.9-7.9-3.6-13.1,0.3-20.4
		c2.7-5.1,5.9-8.8,9.8-12.8c4-4,9.2-8,14-11.2c2.9-2,13.8-3.9,21.1,0c5.8,3.1,8.4,5.3,12.4,9.3c4,4,9,9.7,11.4,14.7
		C124.7,62.7,125.3,68.5,121.9,76L121.9,76z"/>
	<path class="st0" d="M83.5,101.3c-5.7-2.7-11-6.5-14.8-10.3c-3.8-3.8-7.2-7.3-10.2-14.3c-3-6.9-2.2-14,0.7-19.4
		c2.9-5.4,6.8-10,10.7-13.8s9.5-8,13.6-9.5c7.5-2.8,12.6-3.5,19.6,0.3c4.9,2.6,8.4,5.7,12.3,9.5c3.8,3.8,8.1,8.2,10.8,13.5
		c3.3,6.6,3.4,12.9,0,20.4c-2.6,5.8-5.1,8.2-9,12c-3.8,3.8-9.3,8.8-14.1,11.1C96.2,104,90.7,104.6,83.5,101.3L83.5,101.3z
		 M81.6,97.5c-5-2.3-8.3-5.3-11.6-8.7c-3.3-3.4-6.1-7.4-8.5-12.2c-3.5-6.8-2.6-12.5-0.5-17.1c2-4.6,4.9-8.8,8.3-12.2
		c3.3-3.4,8.3-7,11.9-8.3c6.6-2.4,12.7-4.8,18.9-1.5c4.3,2.3,8.7,5.2,12.1,8.5c3.3,3.4,8,8.8,10.1,13.6c2.9,6.8,1.4,11.7-1.5,17.6
		c-2.4,5-5.8,7.7-9.1,11.1c-3.3,3.4-8.9,7.4-13,9.4C92.4,100.7,87.8,100.4,81.6,97.5L81.6,97.5z"/>
	<path class="st0" d="M134.6,81.5c-3.6,7.7-9.1,13.1-14.4,18.3c-5.3,5.2-11.6,10.8-18.9,15c-10.7,6.1-19.7,3-27.1-0.9
		c-7.4-3.9-13.7-8.6-18.9-13.8c-5.3-5.2-11-12.9-13-18.5c-3.8-10.2-3-16.7,1.3-26.1c3.2-7,6.9-11.9,12.2-17.1s10.6-9.6,17.7-13.6
		c9.4-5.3,19.6-5.5,28.8-1c7.8,3.8,11.2,7,16.5,12.2c5.3,5.2,12,12.7,15.1,19.1C138.4,64.2,139.2,71.7,134.6,81.5L134.6,81.5z
		 M132.1,81.4c-3.2,6.8-8,11.5-12.5,16c-4.6,4.5-10.1,9.4-16.5,13.1c-9.4,5.4-17.2,2.6-23.6-0.8c-6.4-3.4-11.9-7.5-16.5-12.1
		c-4.6-4.5-9.6-11.3-11.4-16.1c-3.3-8.9-4.2-14.9,0.3-23.2c3.2-5.8,6.3-10.2,10.9-14.8c4.6-4.5,10.6-8.8,16.7-12.5
		c8.5-5.2,16-4.4,24.4,0c6.7,3.5,9.8,6.1,14.4,10.6c4.6,4.5,10.5,11.1,13.2,16.7C135.5,66.3,136.1,72.9,132.1,81.4L132.1,81.4z"/>
	<path class="st1" d="M216.1,89.6c0,0.8,0,1.4-0.1,2c0,0.5-0.1,1-0.2,1.4c-0.1,0.4-0.2,0.7-0.4,1c-0.2,0.3-0.4,0.6-0.8,0.9
		c-0.3,0.4-1,0.8-2,1.4c-1,0.5-2.2,1.1-3.7,1.6c-1.5,0.5-3.1,0.9-5,1.3c-1.9,0.3-3.9,0.5-6.1,0.5c-4.2,0-8.1-0.6-11.5-1.9
		c-3.4-1.3-6.3-3.2-8.7-5.7c-2.4-2.5-4.2-5.7-5.5-9.5c-1.3-3.8-1.9-8.2-1.9-13.2c0-5.1,0.7-9.7,2.1-13.7c1.4-4,3.4-7.3,5.9-10
		c2.5-2.7,5.6-4.7,9.1-6.1c3.5-1.4,7.4-2.1,11.7-2.1c1.7,0,3.4,0.1,5,0.4c1.6,0.3,3.1,0.6,4.4,1.1c1.4,0.4,2.6,1,3.7,1.6
		c1.1,0.6,1.9,1.1,2.3,1.5c0.4,0.4,0.7,0.8,0.9,1.1c0.2,0.3,0.3,0.6,0.4,1.1c0.1,0.4,0.2,1,0.2,1.5c0,0.6,0.1,1.3,0.1,2.2
		c0,0.9,0,1.7-0.1,2.4c-0.1,0.7-0.2,1.2-0.3,1.6c-0.2,0.4-0.4,0.7-0.6,0.9c-0.2,0.2-0.5,0.3-0.8,0.3c-0.5,0-1.1-0.3-1.8-0.8
		c-0.7-0.5-1.7-1.1-2.9-1.8c-1.2-0.7-2.6-1.3-4.2-1.8c-1.6-0.5-3.5-0.8-5.8-0.8c-2.5,0-4.7,0.5-6.6,1.5c-1.9,1-3.6,2.4-4.9,4.2
		c-1.4,1.8-2.4,4-3.1,6.6c-0.7,2.6-1,5.5-1,8.7c0,3.5,0.4,6.6,1.1,9.2c0.8,2.6,1.8,4.7,3.2,6.4c1.4,1.7,3.1,2.9,5,3.7
		c2,0.8,4.2,1.2,6.6,1.2c2.2,0,4.2-0.3,5.8-0.8c1.6-0.5,3-1.1,4.2-1.7c1.2-0.6,2.1-1.2,2.9-1.7c0.8-0.5,1.3-0.7,1.8-0.7
		c0.3,0,0.6,0.1,0.8,0.2c0.2,0.1,0.4,0.4,0.5,0.7c0.1,0.4,0.2,0.9,0.3,1.6C216.1,87.6,216.1,88.5,216.1,89.6L216.1,89.6z
		 M259.3,93.6c0,0.9,0,1.7-0.1,2.4c-0.1,0.6-0.2,1.2-0.4,1.6c-0.2,0.4-0.4,0.7-0.6,0.9c-0.2,0.2-0.5,0.3-0.8,0.3H229
		c-1,0-1.9-0.3-2.7-0.9c-0.7-0.6-1.1-1.6-1.1-3V40.1c0-0.3,0.1-0.6,0.3-0.8c0.2-0.2,0.6-0.4,1-0.6c0.5-0.2,1.1-0.3,2-0.4
		s1.8-0.1,3-0.1c1.2,0,2.3,0,3.1,0.1c0.8,0.1,1.4,0.2,1.9,0.4c0.5,0.2,0.8,0.4,1,0.6c0.2,0.3,0.3,0.5,0.3,0.8v48.5h19.5
		c0.3,0,0.6,0.1,0.8,0.3c0.2,0.2,0.4,0.4,0.6,0.8c0.2,0.4,0.3,0.9,0.4,1.5C259.3,91.9,259.3,92.7,259.3,93.6L259.3,93.6z
		 M279.5,97.1c0,0.3-0.1,0.6-0.3,0.8c-0.2,0.2-0.6,0.4-1,0.6c-0.5,0.1-1.1,0.3-1.9,0.4c-0.8,0.1-1.8,0.1-3.1,0.1c-1.2,0-2.2,0-3-0.1
		c-0.8-0.1-1.5-0.2-2-0.4c-0.5-0.2-0.8-0.4-1-0.6c-0.2-0.3-0.3-0.5-0.3-0.8v-57c0-0.3,0.1-0.6,0.3-0.8c0.2-0.2,0.6-0.4,1.1-0.6
		c0.5-0.2,1.1-0.3,1.9-0.4c0.8-0.1,1.8-0.1,3-0.1c1.2,0,2.3,0,3.1,0.1c0.8,0.1,1.4,0.2,1.9,0.4c0.5,0.2,0.8,0.4,1,0.6
		c0.2,0.3,0.3,0.5,0.3,0.8V97.1L279.5,97.1z M336,89.6c0,0.8,0,1.4-0.1,2c0,0.5-0.1,1-0.2,1.4c-0.1,0.4-0.2,0.7-0.4,1
		c-0.2,0.3-0.4,0.6-0.8,0.9c-0.3,0.4-1,0.8-2,1.4c-1,0.5-2.2,1.1-3.7,1.6c-1.5,0.5-3.1,0.9-5,1.3c-1.9,0.3-3.9,0.5-6.1,0.5
		c-4.2,0-8.1-0.6-11.5-1.9c-3.4-1.3-6.3-3.2-8.7-5.7c-2.4-2.5-4.2-5.7-5.5-9.5c-1.3-3.8-1.9-8.2-1.9-13.2c0-5.1,0.7-9.7,2.1-13.7
		c1.4-4,3.4-7.3,5.9-10c2.5-2.7,5.6-4.7,9.1-6.1c3.5-1.4,7.4-2.1,11.7-2.1c1.7,0,3.4,0.1,5,0.4c1.6,0.3,3.1,0.6,4.4,1.1
		c1.4,0.4,2.6,1,3.7,1.6c1.1,0.6,1.9,1.1,2.3,1.5c0.4,0.4,0.7,0.8,0.9,1.1c0.2,0.3,0.3,0.6,0.4,1.1c0.1,0.4,0.2,1,0.2,1.5
		c0,0.6,0.1,1.3,0.1,2.2c0,0.9,0,1.7-0.1,2.4c-0.1,0.7-0.2,1.2-0.3,1.6c-0.2,0.4-0.4,0.7-0.6,0.9c-0.2,0.2-0.5,0.3-0.8,0.3
		c-0.5,0-1.1-0.3-1.8-0.8c-0.7-0.5-1.7-1.1-2.9-1.8c-1.2-0.7-2.6-1.3-4.2-1.8c-1.6-0.5-3.5-0.8-5.8-0.8c-2.5,0-4.7,0.5-6.6,1.5
		c-1.9,1-3.6,2.4-4.9,4.2c-1.4,1.8-2.4,4-3.1,6.6c-0.7,2.6-1,5.5-1,8.7c0,3.5,0.4,6.6,1.1,9.2c0.8,2.6,1.8,4.7,3.2,6.4
		c1.4,1.7,3.1,2.9,5,3.7c2,0.8,4.2,1.2,6.6,1.2c2.2,0,4.2-0.3,5.8-0.8c1.6-0.5,3-1.1,4.2-1.7c1.2-0.6,2.1-1.2,2.9-1.7
		c0.8-0.5,1.3-0.7,1.8-0.7c0.3,0,0.6,0.1,0.8,0.2c0.2,0.1,0.4,0.4,0.5,0.7c0.1,0.4,0.2,0.9,0.3,1.6C336,87.6,336,88.5,336,89.6
		L336,89.6z M390.4,96.9c0,0.4-0.1,0.7-0.3,0.9c-0.2,0.3-0.5,0.5-1,0.7c-0.5,0.2-1.2,0.3-2,0.4c-0.9,0.1-2,0.1-3.3,0.1
		c-2.1,0-3.6-0.1-4.5-0.2c-0.9-0.1-1.6-0.4-2-0.7c-0.4-0.3-0.7-0.7-0.9-1.1l-18.8-28.6V97c0,0.3-0.1,0.6-0.3,0.9
		c-0.2,0.2-0.5,0.5-1,0.6c-0.5,0.2-1.1,0.3-1.9,0.4c-0.8,0.1-1.8,0.1-3,0.1c-1.2,0-2.2,0-3-0.1c-0.8-0.1-1.5-0.2-1.9-0.4
		c-0.5-0.2-0.8-0.4-1-0.6c-0.2-0.3-0.3-0.6-0.3-0.9V40.1c0-0.3,0.1-0.6,0.3-0.9c0.2-0.2,0.6-0.4,1-0.6c0.5-0.2,1.1-0.3,1.9-0.4
		c0.8-0.1,1.8-0.1,3-0.1c1.2,0,2.3,0,3,0.1c0.8,0.1,1.4,0.2,1.9,0.4c0.5,0.2,0.8,0.4,1,0.6c0.2,0.3,0.3,0.5,0.3,0.9v25.7l18.2-25.6
		c0.2-0.4,0.5-0.7,0.8-1c0.3-0.3,0.7-0.5,1.2-0.6c0.5-0.1,1.2-0.3,2-0.3c0.8-0.1,1.8-0.1,3.1-0.1c1.3,0,2.3,0,3.2,0.1
		c0.8,0.1,1.5,0.2,2,0.4c0.5,0.2,0.8,0.4,1,0.6c0.2,0.3,0.3,0.5,0.3,0.8c0,0.5-0.1,1.1-0.4,1.6c-0.3,0.6-0.8,1.4-1.6,2.7l-17,21.7
		l18.6,27.3c0.7,1.3,1.1,2.1,1.3,2.5C390.4,96.3,390.4,96.7,390.4,96.9L390.4,96.9z"/>
</g>
</svg>
