<svg width="16" height="16" viewBox="0 0 16 16" fill="none" xmlns="http://www.w3.org/2000/svg"><path d="M0 3a1 1 0 001 1h2a1 1 0 001-1V1a1 1 0 00-1-1H1a1 1 0 00-1 1v2zm6 12a1 1 0 001 1h2a1 1 0 001-1v-2a1 1 0 00-1-1H7a1 1 0 00-1 1v2zm-6 0a1 1 0 001 1h2a1 1 0 001-1v-2a1 1 0 00-1-1H1a1 1 0 00-1 1v2zm0-6a1 1 0 001 1h2a1 1 0 001-1V7a1 1 0 00-1-1H1a1 1 0 00-1 1v2zm6 0a1 1 0 001 1h2a1 1 0 001-1V7a1 1 0 00-1-1H7a1 1 0 00-1 1v2zm7-9a1 1 0 00-1 1v2a1 1 0 001 1h2a1 1 0 001-1V1a1 1 0 00-1-1h-2zM6 3a1 1 0 001 1h2a1 1 0 001-1V1a1 1 0 00-1-1H7a1 1 0 00-1 1v2zm6 6a1 1 0 001 1h2a1 1 0 001-1V7a1 1 0 00-1-1h-2a1 1 0 00-1 1v2zm0 6a1 1 0 001 1h2a1 1 0 001-1v-2a1 1 0 00-1-1h-2a1 1 0 00-1 1v2z" fill="#C2C6D1"/></svg>