<?xml version="1.0" encoding="utf-8"?>
<!-- Generator: Adobe Illustrator 23.1.1, SVG Export Plug-In . SVG Version: 6.00 Build 0)  -->
<svg version="1.1" id="Layer_1" xmlns="http://www.w3.org/2000/svg" xmlns:xlink="http://www.w3.org/1999/xlink" x="0px" y="0px"
	 viewBox="0 0 419.5 140.7" style="enable-background:new 0 0 419.5 140.7;" xml:space="preserve">
<style type="text/css">
	.st0{fill:#FFFFFF;}
</style>
<g>
	<path  class="st0" d="M127.1,84.7c0,0-3.1,6.5-14.1,6.5c-2.6,0.1-5.3-0.6-7.5-2.1c-2-1.5-3-4-2.8-6.4c-0.2-3.4,1.6-6.5,4.7-8
		c4.5-1.7,9.2-2.5,14-2.3c2.8-0.4,5.4,1.5,5.8,4.3c0,0.3,0.1,0.5,0.1,0.8L127.1,84.7L127.1,84.7z M143.5,48.4
		c-0.6-1.4-1.4-2.8-2.4-3.9c-1-1.1-2.2-2-3.5-2.8c-1.4-0.9-2.8-1.7-4.4-2.4c-1.6-0.6-3.2-1.1-4.8-1.4c-1.9-0.4-3.8-0.7-5.7-0.8
		c-2-0.2-4.3-0.3-6.8-0.3c-16.9,0-26.5,5.3-28.8,16c-0.4,1.5,0.5,3.1,2.1,3.4c0.1,0,0.3,0.1,0.4,0.1H100c2.8,0,2.8-0.9,3.9-3.3
		c0.5-1.3,1.3-2.5,2.4-3.3c2.7-1.7,5.8-2.5,8.9-2.3c2.9-0.3,5.9,0.4,8.3,2.1c1.9,1.7,3,4.2,3.1,6.7c0,3.5-1.1,5.8-5.4,5.8
		c-10.3-0.4-21.4,0.8-27.7,4.4c-6.3,3.8-10,10.7-9.8,18c-0.1,2.8,0.5,5.6,1.7,8.1c1.1,2.2,2.7,4.2,4.7,5.7c2.1,1.7,4.5,2.9,7,3.7
		c2.9,0.8,5.9,1.2,8.9,1.1c4,0.1,8.1-0.5,11.9-1.7c3.4-1.4,6.6-3.2,9.6-5.4v2c0,2,0.6,3.7,2.8,3.7h12c2.4,0,3-1.7,3-3.9v-37
		c0-2.3-0.1-4.6-0.5-6.9C144.7,51.8,144.2,50,143.5,48.4L143.5,48.4z M160.2,112.4c-0.9,0-1.9-0.1-2.8-0.2c-1.2-0.2-3.4,0-3.4,2v8.5
		c0,3.3,1.6,3.5,2.4,3.7c2.6,0.6,5.3,0.9,8,0.8c3.2,0.1,6.3-0.6,9.2-1.9c2.6-1.3,5-3.2,6.9-5.4c2.2-2.5,4-5.2,5.4-8.1
		c1.6-3.1,3.1-6.6,4.5-10.4l1.6-4.5C188.7,100.1,174.2,113.7,160.2,112.4L160.2,112.4z M209.3,38.2h-11c-2.2-0.1-4.1,1.3-4.6,3.4
		l-12.8,35.3c0,0-11.3-32.2-12.2-34.6c-0.5-2.4-2.6-4.1-5-4.1h-10.2c-3.6,0-3.6,2.8-3.1,3.9c0.5,1.1,14.4,39.2,19.8,53.7
		c0.9,1.8,1.5,3.7,1.8,5.7c-0.4,1.9-1.1,3.8-2.1,5.4c-0.4,0.7-0.9,1.4-1.4,2c10.5-3.1,22.6-14.5,28.7-26.7
		c6.2-17,14.3-39.6,14.6-40.8C212.2,39.7,212.2,38.2,209.3,38.2L209.3,38.2z M33.6,87.4c-7-2.5-13.3-6.5-18.6-11.7v22.2
		c-0.2,1.7,1,3.3,2.7,3.6c0,0,0.1,0,0.1,0h12.8c3.4,0,3-3.6,3-3.6V87.4L33.6,87.4z M62.2,48.8c-1,1.7-2.5,3.1-4.2,3.9
		c-1.9,0.9-4,1.5-6.1,1.6c-2.3,0.3-4.6,0.4-7,0.4h-8.1c-2,0-3.2-1.6-3.2-3.9V31.9c-0.1-1.6,1.1-2.9,2.6-3c0.2,0,0.4,0,0.5,0h8.1
		c2.6,0,5.1,0.1,7.5,0.2c2.1,0.1,4.1,0.6,6,1.5c1.7,0.8,3.2,2.1,4.2,3.7c1.1,2.2,1.6,4.7,1.4,7.1C64,44,63.4,46.6,62.2,48.8
		L62.2,48.8L62.2,48.8z M78.7,25.2c-1.4-2.2-3.1-4.1-5.2-5.7c-2.1-1.4-4.4-2.6-6.9-3.3c-2.7-0.9-5.4-1.4-8.2-1.7
		C55.2,14.2,52,14,48.7,14H20.4c-2.7-0.3-5.1,1.7-5.4,4.4c0,0,0,0.1,0,0.1v0.3v45.9c3.9,8.4,10.4,15.4,18.6,19.8v-9.2
		c-0.3-3,1.9-5.6,4.9-5.9c0,0,0,0,0,0H47c11.6,0,20.4-2.4,26.5-7.3c6.1-4.8,9.2-12,9.3-21.6c0-2.7-0.3-5.5-1-8.1
		C81.2,29.9,80.2,27.5,78.7,25.2L78.7,25.2z"/>
	<path  class="st0" d="M401.9,60.9c2.8,4.6,2.8,10.4,0,14.9c-2.8,4.3-18.2,20.8-23.3,26c-4.4,4.6-10.4,9.2-16.3,9.2H239.9
		c-16.6,0-17.6-5.7-17.6-18.3V41.4c0-12.9,3.8-16.7,15.2-16.7h125.1c5.9,0,11.1,3,17,9.1C384.7,38.9,399.9,57.9,401.9,60.9
		L401.9,60.9z"/>
	<path fill="#000" d="M250.1,44.6v-0.3c0-1.7,0-3.3-2.8-3.3H237c-2.4,0-2.5,1.3-2.5,3.3v13.6C238.5,52.3,243.9,47.7,250.1,44.6
		L250.1,44.6z"/>
	<path fill="#000"  d="M318.9,93.7V93V60.2c0-13.7-6.1-20.6-18.2-20.6c-3.4,0-6.7,1-9.5,2.8c-3.1,2-5.9,4.4-8.3,7.2
		c-1.1-3.1-3.1-5.7-5.9-7.4c-3.1-1.7-6.7-2.6-10.2-2.4c-5.2,0-10.3,1.8-14.5,5c-0.9,0.9-17.9,14.1-17.9,27.9v21
		c0,0.7-0.3,3.2,2.5,3.2h10.7c3.3,0,3-2.2,3-3.1V59.9c1.8-2.4,5.4-8.1,11.5-8.1c2-0.2,3.9,0.7,5,2.3c1.2,2.4,1.7,5.1,1.5,7.8v26.4
		v5.4c0,0.7-0.3,3.2,2.5,3.2h10.5c3.3,0,3-2.2,3-3.1v-0.7V59.8c1.9-2.4,5.7-8.1,11.5-8.1c2-0.2,3.9,0.7,5.1,2.3
		c1.2,2.4,1.8,5.1,1.6,7.8v26.4v5.4c0,0.7-0.3,3.2,2.5,3.2h10.7C319.3,96.7,318.9,94.6,318.9,93.7L318.9,93.7z"/>
	<path fill="#000" d="M353,50.8c-6.5,0-10.9,4.5-11.8,11.9h23.2C363.8,56.2,360.3,50.8,353,50.8L353,50.8z M377.7,80.4
		c-3.7,10-13.5,16.4-24.2,15.9c-16.3,0-27.2-11.1-27.2-27.7c0-16.6,11.3-28.3,26.6-28.3c15.3,0,25.5,10.6,26.1,27.6
		c0,2.2-0.5,4.1-3.3,4.1h-34.6c0.2,9.1,4.6,14.1,12.4,14.1c4.2,0.1,8.1-2.3,10-6.1c0.7-1.1,2-1.7,3.3-1.7h8.9c1,0,1.8,0.7,1.9,1.7
		c0,0.1,0,0.3,0,0.4L377.7,80.4L377.7,80.4z"/>
</g>
</svg>
