<svg width="19" height="20" fill="none" xmlns="http://www.w3.org/2000/svg"><path d="M18.24 14.1v2.5a1.667 1.667 0 01-1.816 1.667 16.492 16.492 0 01-7.192-2.558 16.25 16.25 0 01-5-5 16.492 16.492 0 01-2.558-7.226 1.667 1.667 0 011.658-1.816h2.5A1.667 1.667 0 017.499 3.1c.105.8.3 1.586.583 2.342A1.667 1.667 0 017.707 7.2L6.649 8.258a13.333 13.333 0 005 5l1.058-1.058a1.667 1.667 0 011.758-.375 10.7 10.7 0 002.342.584A1.667 1.667 0 0118.24 14.1z" stroke="#fff" stroke-width="1.5" stroke-linecap="round" stroke-linejoin="round"/></svg>